<mxfile modified="2023-08-25T15:08:55.350Z" host="Electron" agent="Mozilla/5.0 (Macintosh; Intel Mac OS X 10_15_7) AppleWebKit/537.36 (KHTML, like Gecko) draw.io/21.6.8 Chrome/114.0.5735.289 Electron/25.5.0 Safari/537.36" etag="kUoJl0TeiRBjBSO0MNyG" version="21.6.8" type="device">
  <diagram id="Ht1M8jgEwFfnCIfOTk4-" name="Page-1">
    <mxGraphModel dx="1266" dy="1643" grid="1" gridSize="10" guides="1" tooltips="1" connect="1" arrows="1" fold="1" page="1" pageScale="1" pageWidth="1600" pageHeight="900" math="0" shadow="0">
      <root>
        <mxCell id="0" />
        <mxCell id="1" parent="0" />
        <mxCell id="EtOflDmT-dvJbsB-n2yZ-1" value="&lt;font style=&quot;font-size: 20px;&quot;&gt;CloudOps&lt;/font&gt;" style="points=[[0,0],[0.25,0],[0.5,0],[0.75,0],[1,0],[1,0.25],[1,0.5],[1,0.75],[1,1],[0.75,1],[0.5,1],[0.25,1],[0,1],[0,0.75],[0,0.5],[0,0.25]];outlineConnect=0;gradientColor=none;html=1;whiteSpace=wrap;fontSize=12;fontStyle=0;container=1;pointerEvents=0;collapsible=0;recursiveResize=0;shape=mxgraph.aws4.group;grIcon=mxgraph.aws4.group_account;strokeColor=#CD2264;fillColor=none;verticalAlign=top;align=left;spacingLeft=30;fontColor=#CD2264;dashed=0;" parent="1" vertex="1">
          <mxGeometry x="280" y="-360" width="320" height="280" as="geometry" />
        </mxCell>
        <mxCell id="EtOflDmT-dvJbsB-n2yZ-6" value="&lt;font style=&quot;font-size: 20px;&quot;&gt;private-settings&lt;/font&gt;" style="sketch=0;points=[[0,0,0],[0.25,0,0],[0.5,0,0],[0.75,0,0],[1,0,0],[0,1,0],[0.25,1,0],[0.5,1,0],[0.75,1,0],[1,1,0],[0,0.25,0],[0,0.5,0],[0,0.75,0],[1,0.25,0],[1,0.5,0],[1,0.75,0]];outlineConnect=0;fontColor=#232F3E;gradientColor=#4D72F3;gradientDirection=north;fillColor=#3334B9;strokeColor=#ffffff;dashed=0;verticalLabelPosition=bottom;verticalAlign=top;align=center;html=1;fontSize=12;fontStyle=0;aspect=fixed;shape=mxgraph.aws4.resourceIcon;resIcon=mxgraph.aws4.codecommit;" parent="EtOflDmT-dvJbsB-n2yZ-1" vertex="1">
          <mxGeometry x="40" y="79.56" width="80" height="80" as="geometry" />
        </mxCell>
        <mxCell id="EtOflDmT-dvJbsB-n2yZ-26" value="2" style="rounded=1;whiteSpace=wrap;html=1;fillColor=#007CBD;strokeColor=none;fontColor=#FFFFFF;fontStyle=1;fontSize=22;" parent="EtOflDmT-dvJbsB-n2yZ-1" vertex="1">
          <mxGeometry x="140" y="220" width="40" height="38" as="geometry" />
        </mxCell>
        <mxCell id="KSef2pX8y4lGC91BxOTT-1" value="&lt;font style=&quot;font-size: 20px;&quot;&gt;settingsReader&lt;/font&gt;" style="sketch=0;outlineConnect=0;fontColor=#232F3E;gradientColor=none;fillColor=#BF0816;strokeColor=none;dashed=0;verticalLabelPosition=bottom;verticalAlign=top;align=center;html=1;fontSize=12;fontStyle=0;aspect=fixed;pointerEvents=1;shape=mxgraph.aws4.role;" parent="EtOflDmT-dvJbsB-n2yZ-1" vertex="1">
          <mxGeometry x="200" y="114.44" width="80" height="45.12" as="geometry" />
        </mxCell>
        <mxCell id="EtOflDmT-dvJbsB-n2yZ-2" value="&lt;font style=&quot;font-size: 20px;&quot;&gt;GitHub&lt;/font&gt;" style="points=[[0,0],[0.25,0],[0.5,0],[0.75,0],[1,0],[1,0.25],[1,0.5],[1,0.75],[1,1],[0.75,1],[0.5,1],[0.25,1],[0,1],[0,0.75],[0,0.5],[0,0.25]];outlineConnect=0;gradientColor=none;html=1;whiteSpace=wrap;fontSize=12;fontStyle=0;container=1;pointerEvents=0;collapsible=0;recursiveResize=0;shape=mxgraph.aws4.group;grIcon=mxgraph.aws4.group_on_premise;strokeColor=#5A6C86;fillColor=none;verticalAlign=top;align=left;spacingLeft=30;fontColor=#5A6C86;dashed=0;" parent="1" vertex="1">
          <mxGeometry x="280" y="-840" width="320" height="280" as="geometry" />
        </mxCell>
        <mxCell id="EtOflDmT-dvJbsB-n2yZ-3" value="&lt;font style=&quot;font-size: 20px;&quot;&gt;sustainable-personal-accounts&lt;/font&gt;" style="dashed=0;outlineConnect=0;html=1;align=center;labelPosition=center;verticalLabelPosition=bottom;verticalAlign=top;shape=mxgraph.weblogos.github" parent="EtOflDmT-dvJbsB-n2yZ-2" vertex="1">
          <mxGeometry x="120" y="80" width="80" height="80" as="geometry" />
        </mxCell>
        <mxCell id="EtOflDmT-dvJbsB-n2yZ-25" value="1" style="rounded=1;whiteSpace=wrap;html=1;fillColor=#007CBD;strokeColor=none;fontColor=#FFFFFF;fontStyle=1;fontSize=22;" parent="EtOflDmT-dvJbsB-n2yZ-2" vertex="1">
          <mxGeometry x="140" y="220" width="40" height="38" as="geometry" />
        </mxCell>
        <mxCell id="EtOflDmT-dvJbsB-n2yZ-4" value="&lt;font style=&quot;font-size: 20px;&quot;&gt;DevOps&lt;/font&gt;" style="points=[[0,0],[0.25,0],[0.5,0],[0.75,0],[1,0],[1,0.25],[1,0.5],[1,0.75],[1,1],[0.75,1],[0.5,1],[0.25,1],[0,1],[0,0.75],[0,0.5],[0,0.25]];outlineConnect=0;gradientColor=none;html=1;whiteSpace=wrap;fontSize=12;fontStyle=0;container=1;pointerEvents=0;collapsible=0;recursiveResize=0;shape=mxgraph.aws4.group;grIcon=mxgraph.aws4.group_account;strokeColor=#CD2264;fillColor=none;verticalAlign=top;align=left;spacingLeft=30;fontColor=#CD2264;dashed=0;" parent="1" vertex="1">
          <mxGeometry x="720" y="-600" width="320" height="280" as="geometry" />
        </mxCell>
        <mxCell id="EtOflDmT-dvJbsB-n2yZ-17" value="&lt;font style=&quot;font-size: 20px;&quot;&gt;configured&lt;/font&gt;" style="sketch=0;points=[[0,0,0],[0.25,0,0],[0.5,0,0],[0.75,0,0],[1,0,0],[0,1,0],[0.25,1,0],[0.5,1,0],[0.75,1,0],[1,1,0],[0,0.25,0],[0,0.5,0],[0,0.75,0],[1,0.25,0],[1,0.5,0],[1,0.75,0]];outlineConnect=0;fontColor=#232F3E;gradientColor=#4D72F3;gradientDirection=north;fillColor=#3334B9;strokeColor=#ffffff;dashed=0;verticalLabelPosition=bottom;verticalAlign=top;align=center;html=1;fontSize=12;fontStyle=0;aspect=fixed;shape=mxgraph.aws4.resourceIcon;resIcon=mxgraph.aws4.cloud_development_kit;" parent="EtOflDmT-dvJbsB-n2yZ-4" vertex="1">
          <mxGeometry x="40" y="80" width="80" height="80" as="geometry" />
        </mxCell>
        <mxCell id="EtOflDmT-dvJbsB-n2yZ-7" value="&lt;font style=&quot;font-size: 20px;&quot;&gt;make deploy&lt;/font&gt;" style="sketch=0;points=[[0,0,0],[0.25,0,0],[0.5,0,0],[0.75,0,0],[1,0,0],[0,1,0],[0.25,1,0],[0.5,1,0],[0.75,1,0],[1,1,0],[0,0.25,0],[0,0.5,0],[0,0.75,0],[1,0.25,0],[1,0.5,0],[1,0.75,0]];outlineConnect=0;fontColor=#232F3E;gradientColor=#4D72F3;gradientDirection=north;fillColor=#3334B9;strokeColor=#ffffff;dashed=0;verticalLabelPosition=bottom;verticalAlign=top;align=center;html=1;fontSize=12;fontStyle=0;aspect=fixed;shape=mxgraph.aws4.resourceIcon;resIcon=mxgraph.aws4.codebuild;" parent="EtOflDmT-dvJbsB-n2yZ-4" vertex="1">
          <mxGeometry x="200" y="80" width="80" height="80" as="geometry" />
        </mxCell>
        <mxCell id="EtOflDmT-dvJbsB-n2yZ-27" value="3" style="rounded=1;whiteSpace=wrap;html=1;fillColor=#007CBD;strokeColor=none;fontColor=#FFFFFF;fontStyle=1;fontSize=22;" parent="EtOflDmT-dvJbsB-n2yZ-4" vertex="1">
          <mxGeometry x="140" y="220" width="40" height="38" as="geometry" />
        </mxCell>
        <mxCell id="EtOflDmT-dvJbsB-n2yZ-8" value="&lt;font style=&quot;font-size: 20px;&quot;&gt;Automation&lt;/font&gt;" style="points=[[0,0],[0.25,0],[0.5,0],[0.75,0],[1,0],[1,0.25],[1,0.5],[1,0.75],[1,1],[0.75,1],[0.5,1],[0.25,1],[0,1],[0,0.75],[0,0.5],[0,0.25]];outlineConnect=0;gradientColor=none;html=1;whiteSpace=wrap;fontSize=12;fontStyle=0;container=1;pointerEvents=0;collapsible=0;recursiveResize=0;shape=mxgraph.aws4.group;grIcon=mxgraph.aws4.group_account;strokeColor=#CD2264;fillColor=none;verticalAlign=top;align=left;spacingLeft=30;fontColor=#CD2264;dashed=0;" parent="1" vertex="1">
          <mxGeometry x="1160" y="-600" width="400" height="280" as="geometry" />
        </mxCell>
        <mxCell id="EtOflDmT-dvJbsB-n2yZ-28" value="4" style="rounded=1;whiteSpace=wrap;html=1;fillColor=#007CBD;strokeColor=none;fontColor=#FFFFFF;fontStyle=1;fontSize=22;" parent="EtOflDmT-dvJbsB-n2yZ-8" vertex="1">
          <mxGeometry x="181" y="220" width="40" height="38" as="geometry" />
        </mxCell>
        <mxCell id="KSef2pX8y4lGC91BxOTT-2" value="&lt;span style=&quot;font-size: 20px;&quot;&gt;spaBuilder&lt;/span&gt;" style="sketch=0;outlineConnect=0;fontColor=#232F3E;gradientColor=none;fillColor=#BF0816;strokeColor=none;dashed=0;verticalLabelPosition=bottom;verticalAlign=top;align=center;html=1;fontSize=12;fontStyle=0;aspect=fixed;pointerEvents=1;shape=mxgraph.aws4.role;" parent="EtOflDmT-dvJbsB-n2yZ-8" vertex="1">
          <mxGeometry x="40" y="114.88" width="80" height="45.12" as="geometry" />
        </mxCell>
        <mxCell id="KSef2pX8y4lGC91BxOTT-5" value="" style="html=1;whiteSpace=wrap;shape=isoCube2;backgroundOutline=1;isoAngle=15;strokeWidth=3;aspect=fixed;fillColor=#d5e8d4;strokeColor=#82b366;" parent="EtOflDmT-dvJbsB-n2yZ-8" vertex="1">
          <mxGeometry x="240" y="71.1" width="80" height="88.9" as="geometry" />
        </mxCell>
        <mxCell id="KSef2pX8y4lGC91BxOTT-6" value="&lt;font style=&quot;font-size: 20px;&quot;&gt;SPA environment&lt;/font&gt;" style="text;html=1;strokeColor=none;fillColor=none;align=center;verticalAlign=middle;whiteSpace=wrap;rounded=0;" parent="EtOflDmT-dvJbsB-n2yZ-8" vertex="1">
          <mxGeometry x="200" y="164" width="160" height="30" as="geometry" />
        </mxCell>
        <mxCell id="EtOflDmT-dvJbsB-n2yZ-15" value="&lt;font style=&quot;font-size: 20px;&quot;&gt;Community&lt;/font&gt;" style="sketch=0;outlineConnect=0;fontColor=#232F3E;gradientColor=none;fillColor=#232F3D;strokeColor=none;dashed=0;verticalLabelPosition=bottom;verticalAlign=top;align=center;html=1;fontSize=12;fontStyle=0;aspect=fixed;pointerEvents=1;shape=mxgraph.aws4.users;" parent="1" vertex="1">
          <mxGeometry x="80" y="-760" width="78" height="78" as="geometry" />
        </mxCell>
        <mxCell id="EtOflDmT-dvJbsB-n2yZ-16" value="&lt;font style=&quot;font-size: 20px;&quot;&gt;CloudOps,&lt;br&gt;DevSecOps,&lt;br&gt;SRE&lt;br&gt;&lt;/font&gt;" style="sketch=0;outlineConnect=0;fontColor=#232F3E;gradientColor=none;fillColor=#232F3D;strokeColor=none;dashed=0;verticalLabelPosition=bottom;verticalAlign=top;align=center;html=1;fontSize=12;fontStyle=0;aspect=fixed;pointerEvents=1;shape=mxgraph.aws4.users;" parent="1" vertex="1">
          <mxGeometry x="80" y="-280" width="78" height="78" as="geometry" />
        </mxCell>
        <mxCell id="EtOflDmT-dvJbsB-n2yZ-18" value="" style="shape=singleArrow;whiteSpace=wrap;html=1;fillColor=#CCCCCC;fontColor=#333333;strokeColor=none;" parent="1" vertex="1">
          <mxGeometry x="170" y="-751" width="100" height="60" as="geometry" />
        </mxCell>
        <mxCell id="EtOflDmT-dvJbsB-n2yZ-21" value="" style="shape=singleArrow;whiteSpace=wrap;html=1;fillColor=#CCCCCC;fontColor=#333333;strokeColor=none;" parent="1" vertex="1">
          <mxGeometry x="1051" y="-510" width="100" height="60" as="geometry" />
        </mxCell>
        <mxCell id="EtOflDmT-dvJbsB-n2yZ-22" value="" style="shape=singleArrow;whiteSpace=wrap;html=1;fillColor=#CCCCCC;fontColor=#333333;strokeColor=none;" parent="1" vertex="1">
          <mxGeometry x="170" y="-271" width="100" height="60" as="geometry" />
        </mxCell>
        <mxCell id="EtOflDmT-dvJbsB-n2yZ-23" value="" style="shape=singleArrow;whiteSpace=wrap;html=1;fillColor=#CCCCCC;fontColor=#333333;strokeColor=none;rotation=30;" parent="1" vertex="1">
          <mxGeometry x="610" y="-655" width="100" height="60" as="geometry" />
        </mxCell>
        <mxCell id="EtOflDmT-dvJbsB-n2yZ-24" value="" style="shape=singleArrow;whiteSpace=wrap;html=1;fillColor=#CCCCCC;fontColor=#333333;strokeColor=none;rotation=330;" parent="1" vertex="1">
          <mxGeometry x="610" y="-326" width="100" height="60" as="geometry" />
        </mxCell>
        <mxCell id="nLwbPY_Wk2MkfxBooLtM-1" value="&lt;font style=&quot;font-size: 20px;&quot;&gt;selected code version&lt;/font&gt;" style="text;html=1;strokeColor=none;fillColor=none;align=left;verticalAlign=middle;whiteSpace=wrap;rounded=0;" vertex="1" parent="1">
          <mxGeometry x="680" y="-670" width="240" height="30" as="geometry" />
        </mxCell>
        <mxCell id="nLwbPY_Wk2MkfxBooLtM-2" value="&lt;font style=&quot;font-size: 20px;&quot;&gt;on last trunk update&lt;/font&gt;" style="text;html=1;strokeColor=none;fillColor=none;align=left;verticalAlign=middle;whiteSpace=wrap;rounded=0;" vertex="1" parent="1">
          <mxGeometry x="680" y="-280" width="240" height="30" as="geometry" />
        </mxCell>
      </root>
    </mxGraphModel>
  </diagram>
</mxfile>
